<svg width="569" height="154" viewBox="0 0 569 154" xmlns="http://www.w3.org/2000/svg"><g fill="#fff" fill-rule="evenodd"><path d="M109.89 65.981H62.135a2.227 2.227 0 00-2.231 2.224v23.254a2.23 2.23 0 002.23 2.225h18.63v28.89s-4.183 1.421-15.748 1.421c-13.644 0-32.704-4.964-32.704-46.707 0-41.752 19.848-47.245 38.48-47.245 16.13 0 23.077 2.827 27.5 4.19 1.39.423 2.674-.953 2.674-2.182l5.327-22.467c0-.575-.196-1.268-.852-1.736C103.645 6.572 92.69.467 65.016.467 33.136.467.433 13.975.433 78.916c0 64.94 37.441 74.617 68.993 74.617 26.123 0 41.971-11.118 41.971-11.118.653-.36.724-1.268.724-1.684V68.205a2.227 2.227 0 00-2.23-2.224M356.004 8.247a2.22 2.22 0 00-2.219-2.235h-26.889a2.23 2.23 0 00-2.226 2.235l.008 51.755h-41.915V8.247a2.221 2.221 0 00-2.218-2.235h-26.888a2.23 2.23 0 00-2.221 2.235v140.137c0 1.236.999 2.242 2.221 2.242h26.888a2.228 2.228 0 002.218-2.242v-59.94h41.915l-.074 59.94c0 1.236.997 2.242 2.228 2.242h26.952c1.232 0 2.217-1.006 2.22-2.242V8.247M160.631 26.637c0-9.644-7.761-17.436-17.338-17.436-9.568 0-17.337 7.792-17.337 17.436 0 9.633 7.769 17.446 17.337 17.446 9.577 0 17.338-7.813 17.338-17.446M158.71 118.824V54.136a2.231 2.231 0 00-2.225-2.233h-26.806c-1.229 0-2.329 1.263-2.329 2.492v92.677c0 2.723 1.704 3.534 3.909 3.534h24.15c2.65 0 3.3-1.297 3.3-3.578v-28.204M458.194 52.115H431.51a2.233 2.233 0 00-2.22 2.24v68.713s-6.78 4.939-16.4 4.939c-9.62 0-12.174-4.348-12.174-13.73V54.354a2.23 2.23 0 00-2.22-2.24h-27.081a2.237 2.237 0 00-2.223 2.24v64.46c0 27.87 15.595 34.688 37.048 34.688 17.602 0 31.793-9.685 31.793-9.685s.675 5.104.982 5.71c.304.603 1.1 1.212 1.962 1.212l17.228-.077a2.237 2.237 0 002.224-2.236l-.01-94.072c0-1.235-.995-2.24-2.226-2.24M520.6 127.922c-9.256-.28-15.534-4.463-15.534-4.463V79.081s6.193-3.781 13.792-4.457c9.608-.856 18.867 2.033 18.867 24.863 0 24.073-4.178 28.825-17.126 28.435zm10.523-78.956c-15.154 0-25.462 6.735-25.462 6.735V8.247a2.225 2.225 0 00-2.219-2.235h-26.966a2.227 2.227 0 00-2.222 2.235v140.137c0 1.236.996 2.242 2.225 2.242h18.71c.842 0 1.48-.432 1.952-1.19.465-.752 1.136-6.461 1.136-6.461s11.025 10.406 31.898 10.406c24.507 0 38.56-12.38 38.56-55.574 0-43.197-22.446-48.841-37.612-48.841zM235.99 51.89h-20.17l-.03-26.538c0-1.006-.52-1.507-1.687-1.507h-27.485c-1.07 0-1.643.468-1.643 1.491v27.425s-13.774 3.312-14.707 3.58a2.225 2.225 0 00-1.609 2.135V75.71c0 1.24.994 2.24 2.223 2.24h14.093v41.46c0 30.795 21.689 33.82 36.323 33.82 6.688 0 14.688-2.139 16.008-2.624.799-.293 1.263-1.118 1.263-2.01l.023-18.958c0-1.237-1.049-2.238-2.23-2.238-1.176 0-4.182.477-7.278.477-9.908 0-13.264-4.589-13.264-10.527l-.002-39.4h20.173c1.229 0 2.224-1 2.224-2.24V54.123a2.226 2.226 0 00-2.224-2.233"/></g></svg>