<?xml version="1.0" encoding="UTF-8"?>
<svg width="86px" height="86px" viewBox="0 0 86 86" version="1.1" xmlns="http://www.w3.org/2000/svg" xmlns:xlink="http://www.w3.org/1999/xlink">
    <title>Spotify_Icon_RGB_Green</title>
    <defs>
        <linearGradient x1="50%" y1="1.9956468e-06%" x2="50%" y2="99.9996026%" id="linearGradient-1">
            <stop stop-color="#F452FF" offset="0%"></stop>
            <stop stop-color="#832BC1" offset="100%"></stop>
        </linearGradient>
    </defs>
    <g id="Spotify_Icon_RGB_Green" stroke="none" stroke-width="1" fill="none" fill-rule="evenodd">
        <g id="Group" transform="translate(2.000000, 1.000000)">
            <path d="M80.8682291,71.5058359 C80.0662779,73.5428365 78.2158228,76.4109649 75.5916127,78.4315724 C74.0765608,79.5984298 72.2677443,80.7138131 69.7832035,81.4498611 C67.1347316,82.2347604 63.8725013,82.5 59.8122541,82.5 L22.687418,82.5 C18.6274987,82.5 15.3652684,82.2347604 12.7164686,81.4498611 C10.2319278,80.7138131 8.42343918,79.5984298 6.90805945,78.4315724 C4.28417716,76.4109649 2.43339427,73.5431644 1.63144299,71.5058359 C0.0163931169,67.4016715 0,62.7447334 0,59.8123443 L0,59.8123443 L0,22.6873279 L0,22.6873279 C0,19.7549388 0.0163931169,15.0980006 1.63177085,10.9938362 C2.43372213,8.9568356 4.28417716,6.08870727 6.90838731,4.06842758 C8.42343918,2.90157016 10.2322557,1.78618692 12.7164686,1.05013889 C15.3652684,0.265239577 18.6274987,0 22.687418,0 L22.687418,0 L59.812582,0 L59.812582,0 C63.8725013,0 67.1347316,0.265239577 69.7835314,1.05013889 C72.2680722,1.78618692 74.0765608,2.90189802 75.5919405,4.06842758 C78.2158228,6.08903513 80.0666057,8.9568356 80.868557,10.9938362 C82.4836069,15.0980006 82.5,19.7549388 82.5,22.6873279 L82.5,59.8120164 C82.5,62.7447334 82.4836069,67.4016715 80.8682291,71.5058359 Z" id="XMLID_1383_" fill="url(#linearGradient-1)"></path>
            <path d="M80.8682291,71.5058359 C80.0662779,73.5428365 78.2158228,76.4109649 75.5916127,78.4315724 C74.0765608,79.5984298 72.2677443,80.7138131 69.7832035,81.4498611 C67.1347316,82.2347604 63.8725013,82.5 59.8122541,82.5 L22.687418,82.5 C18.6274987,82.5 15.3652684,82.2347604 12.7164686,81.4498611 C10.2319278,80.7138131 8.42343918,79.5984298 6.90805945,78.4315724 C4.28417716,76.4109649 2.43339427,73.5431644 1.63144299,71.5058359 C0.0163931169,67.4016715 0,62.7447334 0,59.8123443 L0,59.8123443 L0,22.6873279 L0,22.6873279 C0,19.7549388 0.0163931169,15.0980006 1.63177085,10.9938362 C2.43372213,8.9568356 4.28417716,6.08870727 6.90838731,4.06842758 C8.42343918,2.90157016 10.2322557,1.78618692 12.7164686,1.05013889 C15.3652684,0.265239577 18.6274987,0 22.687418,0 L22.687418,0 L59.812582,0 L59.812582,0 C63.8725013,0 67.1347316,0.265239577 69.7835314,1.05013889 C72.2680722,1.78618692 74.0765608,2.90189802 75.5919405,4.06842758 C78.2158228,6.08903513 80.0666057,8.9568356 80.868557,10.9938362 C82.4836069,15.0980006 82.5,19.7549388 82.5,22.6873279 L82.5,59.8120164 C82.5,62.7447334 82.4836069,67.4016715 80.8682291,71.5058359 Z" id="XMLID_1381_"></path>
            <g id="XMLID_1369_" transform="translate(12.100000, 8.800000)" fill="#FFFFFF" fill-rule="nonzero">
                <path d="M35.44079,38.92856 C34.19504,37.61417 32.00648,36.77135 29.42258,36.77135 C26.83868,36.77135 24.65012,37.61417 23.40437,38.92856 C22.75394,39.61463 22.41008,40.31786 22.30184,41.31974 C22.09229,43.26014 22.2101,44.93027 22.43747,47.60129 C22.65395,50.14625 23.0648,53.53997 23.60171,56.99639 C23.98352,59.45621 24.29372,60.7838 24.5762,61.73486 C25.03424,63.27563 26.74595,64.62302 29.42258,64.62302 C32.09921,64.62302 33.81092,63.2753 34.26896,61.73486 C34.55144,60.78413 34.86197,59.45654 35.24345,56.99639 C35.78036,53.53997 36.19121,50.14658 36.40769,47.60129 C36.63473,44.93027 36.75287,43.25981 36.54299,41.31974 C36.43508,40.31786 36.09122,39.61496 35.44079,38.92856 Z M22.63349,27.22247 C22.63349,30.97589 25.67609,34.01849 29.42951,34.01849 C33.1826,34.01849 36.2252,30.97589 36.2252,27.22247 C36.2252,23.46938 33.1826,20.42645 29.42951,20.42645 C25.67609,20.42645 22.63349,23.46938 22.63349,27.22247 Z M29.34503,0.402921776 C13.45091,0.44825 0.42779,13.34234 0.23078,29.23514 C0.07139,42.10943 8.28938,53.12219 19.76513,57.15875 C20.04398,57.25676 20.32679,57.02576 20.28257,56.73338 C20.13242,55.73414 19.99052,54.72929 19.85984,53.7416 C19.81364,53.39246 19.59122,53.0915 19.26848,52.95059 C10.19843,48.98795 3.86441,39.89084 3.96605,29.35394 C4.09937,15.52529 15.39098,4.25183 29.21963,4.13996 C43.35617,4.02578 54.8933,15.49262 54.8933,29.60342 C54.8933,40.03505 48.58733,49.02029 39.58757,52.95125 C39.26516,53.09216 39.04406,53.39411 38.99819,53.74259 C38.86784,54.72995 38.72594,55.73414 38.57579,56.73305 C38.5319,57.0251 38.81438,57.25643 39.0929,57.15842 C50.45909,53.16047 58.62956,42.31898 58.62956,29.60342 C58.63022,13.47434 45.485,0.3575 29.34503,0.402921776 Z M28.81769,13.80005 C37.82735,13.45091 45.26852,20.67956 45.26852,29.61332 C45.26852,34.15676 43.34363,38.25866 40.26671,41.14748 C40.00601,41.39234 39.86576,41.74016 39.88589,42.09722 C39.94727,43.18424 39.92483,44.23991 39.85256,45.43253 C39.83309,45.75032 40.18949,45.95327 40.45217,45.77375 C45.61172,42.24803 49.00511,36.31991 49.00511,29.61299 C49.00511,18.56987 39.80669,9.63446 28.66952,10.0661 C18.3194,10.46705 10.01528,19.00085 9.88295,29.3579 C9.79583,36.17009 13.21001,42.20447 18.43556,45.77474 C18.69791,45.95393 19.05332,45.75032 19.03418,45.43319 C18.96158,44.23991 18.93947,43.18391 19.00052,42.09722 C19.02032,41.74049 18.8804,41.393 18.6197,41.14814 C15.44708,38.16956 13.49876,33.90068 13.62284,29.18861 C13.8413,20.89538 20.52743,14.12114 28.81769,13.80005 Z" id="Shape"></path>
            </g>
        </g>
    </g>
</svg>