<?xml version="1.0" encoding="UTF-8"?>
<svg width="317px" height="59px" viewBox="0 0 317 59" version="1.1" xmlns="http://www.w3.org/2000/svg" xmlns:xlink="http://www.w3.org/1999/xlink">
    <title>logo</title>
    <defs>
        <path d="M3.599,2.512 L1.4075,2.512 C0.7545,2.512 0.2255,1.983 0.2255,1.33 C0.2255,0.677 0.7545,0.1475 1.4075,0.1475 L3.599,0.1475 C4.252,0.1475 4.7815,0.677 4.7815,1.33 C4.7815,1.983 4.252,2.512 3.599,2.512" id="path-1"></path>
        <path d="M34.2315,0.183 L34.2315,9.288 C34.2315,17.9615 27.1735,25.0155 18.5,25.0155 C9.8265,25.0155 2.7685,17.9615 2.7685,9.288 L2.7685,0.183 L0.1195,0.183 L0.1195,9.288 C0.1195,19.4225 8.3655,27.6645 18.5,27.6645 C28.6345,27.6645 36.8805,19.4225 36.8805,9.288 L36.8805,0.183 L34.2315,0.183" id="path-3"></path>
        <path d="M0.16,2.258 L0.16,2.258 C0.16,1.2745 0.9575,0.4775 1.9405,0.4775 L13.0595,0.4775 C14.0425,0.4775 14.84,1.2745 14.84,2.258 C14.84,3.241 14.0425,4.038 13.0595,4.038 L1.9405,4.038 C0.9575,4.038 0.16,3.241 0.16,2.258" id="path-5"></path>
        <path d="M32,18.5542025 L32,15.2027435 L25.6584591,15.2027435 C24.8515172,15.2027435 24.1447521,14.5900454 24.1236804,13.7952397 C24.1026087,12.9793299 24.7675759,12.3114889 25.5904079,12.3114889 L32,12.3114889 C31.9965456,5.51156042 26.4014951,0 19.5,0 C12.5985049,0 7.00310894,5.51156042 7,12.3114889 L13.1180429,12.3114889 C13.921185,12.3114889 14.6217322,12.921464 14.6459128,13.7128658 C14.6707843,14.5314986 14.0044354,15.2027435 13.1791853,15.2027435 L7,15.2027435 L7,18.5542025 L13.1176975,18.5542025 C13.921185,18.5542025 14.6217322,19.1641776 14.6459128,19.9555794 C14.6707843,20.7742122 14.0044354,21.4454571 13.1791853,21.4454571 L7,21.4454571 L7,24.7969161 L13.1180429,24.7969161 C13.921185,24.7969161 14.6217322,25.4068912 14.6459128,26.198293 C14.6707843,27.0169258 14.0044354,27.6885111 13.1791853,27.6885111 L7,27.6885111 C7.00310894,34.4884396 12.5985049,40 19.5,40 C26.4014951,40 31.9965456,34.4884396 32,27.6885111 L25.5907533,27.6885111 C24.7807025,27.6885111 24.1236804,27.0410933 24.1236804,26.2425434 C24.1236804,25.4443338 24.7807025,24.7969161 25.5907533,24.7969161 L32,24.7969161 L32,21.4454571 L25.6584591,21.4454571 C24.8515172,21.4454571 24.1447521,20.8330993 24.1236804,20.0379532 C24.1026087,19.2220435 24.7675759,18.5542025 25.5904079,18.5542025 L32,18.5542025 Z" id="path-7"></path>
    </defs>
    <g id="Page-1" stroke="none" stroke-width="1" fill="none" fill-rule="evenodd">
        <g id="logo" transform="translate(-99.000000, -272.000000)">
            <g transform="translate(99.000000, 272.000000)">
                <g id="logo-mark">
                    <g id="Group-33" transform="translate(0.000000, 18.000000)">
                        <path d="M3.422,2.512 L1.2305,2.512 C0.5775,2.512 0.048,1.983 0.048,1.33 C0.048,0.677 0.5775,0.1475 1.2305,0.1475 L3.422,0.1475 C4.075,0.1475 4.604,0.677 4.604,1.33 C4.604,1.983 4.075,2.512 3.422,2.512" id="Clip-32"></path>
                        <path d="M3.422,2.512 L1.2305,2.512 C0.5775,2.512 0.048,1.983 0.048,1.33 C0.048,0.677 0.5775,0.1475 1.2305,0.1475 L3.422,0.1475 C4.075,0.1475 4.604,0.677 4.604,1.33 C4.604,1.983 4.075,2.512 3.422,2.512" id="Fill-31" fill="#EC5033"></path>
                    </g>
                    <g id="Group-36" transform="translate(34.000000, 18.000000)">
                        <mask id="mask-2" fill="white">
                            <use xlink:href="#path-1"></use>
                        </mask>
                        <g id="Clip-35"></g>
                        <path d="M3.599,2.512 L1.4075,2.512 C0.7545,2.512 0.2255,1.983 0.2255,1.33 C0.2255,0.677 0.7545,0.1475 1.4075,0.1475 L3.599,0.1475 C4.252,0.1475 4.7815,0.677 4.7815,1.33 C4.7815,1.983 4.252,2.512 3.599,2.512" id="Fill-34" fill="#EC5033" mask="url(#mask-2)"></path>
                    </g>
                    <g id="Group-45" transform="translate(1.000000, 18.000000)">
                        <mask id="mask-4" fill="white">
                            <use xlink:href="#path-3"></use>
                        </mask>
                        <g id="Clip-44"></g>
                        <path d="M34.2315,0.183 L34.2315,9.288 C34.2315,17.9615 27.1735,25.0155 18.5,25.0155 C9.8265,25.0155 2.7685,17.9615 2.7685,9.288 L2.7685,0.183 L0.1195,0.183 L0.1195,9.288 C0.1195,19.4225 8.3655,27.6645 18.5,27.6645 C28.6345,27.6645 36.8805,19.4225 36.8805,9.288 L36.8805,0.183 L34.2315,0.183" id="Fill-43" fill="#EC5033" mask="url(#mask-4)"></path>
                    </g>
                    <polygon id="Fill-49" fill="#EC5033" points="17.0915 52.6205 21.9085 52.6205 21.9085 45.505 17.0915 45.505"></polygon>
                    <g id="Group-53" transform="translate(12.000000, 53.500000)">
                        <mask id="mask-6" fill="white">
                            <use xlink:href="#path-5"></use>
                        </mask>
                        <g id="Clip-52"></g>
                        <path d="M0.16,2.258 L0.16,2.258 C0.16,1.2745 0.9575,0.4775 1.9405,0.4775 L13.0595,0.4775 C14.0425,0.4775 14.84,1.2745 14.84,2.258 C14.84,3.241 14.0425,4.038 13.0595,4.038 L1.9405,4.038 C0.9575,4.038 0.16,3.241 0.16,2.258" id="Fill-51" fill="#EC5033" mask="url(#mask-6)"></path>
                    </g>
                    <mask id="mask-8" fill="white">
                        <use xlink:href="#path-7"></use>
                    </mask>
                    <use id="microphone-shape" fill="#EC5033" xlink:href="#path-7"></use>
                </g>
                <path d="M57.64,44 L57.64,32.096 L62.728,32.096 C65.384,32.096 67.64,31.624 69.496,30.68 C71.352,29.736 72.752,28.44 73.696,26.792 C74.64,25.144 75.112,23.264 75.112,21.152 C75.112,17.76 74.056,15.064 71.944,13.064 C69.832,11.064 66.76,10.064 62.728,10.064 L62.728,10.064 L49.432,10.064 L49.432,44 L57.64,44 Z M61.816,25.52 L57.64,25.52 L57.64,16.688 L61.816,16.688 C65.112,16.688 66.76,18.176 66.76,21.152 C66.76,24.064 65.112,25.52 61.816,25.52 L61.816,25.52 Z M93.272,44.336 C96.44,44.336 99.328,43.592 101.936,42.104 C104.544,40.616 106.608,38.544 108.128,35.888 C109.648,33.232 110.408,30.24 110.408,26.912 C110.408,23.584 109.656,20.6 108.152,17.96 C106.648,15.32 104.592,13.256 101.984,11.768 C99.376,10.28 96.472,9.536 93.272,9.536 C90.104,9.536 87.216,10.28 84.608,11.768 C82,13.256 79.936,15.32 78.416,17.96 C76.896,20.6 76.136,23.584 76.136,26.912 C76.136,30.24 76.896,33.232 78.416,35.888 C79.936,38.544 82,40.616 84.608,42.104 C87.216,43.592 90.104,44.336 93.272,44.336 Z M93.272,36.656 C90.584,36.656 88.448,35.776 86.864,34.016 C85.28,32.256 84.488,29.888 84.488,26.912 C84.488,23.904 85.28,21.528 86.864,19.784 C88.448,18.04 90.584,17.168 93.272,17.168 C95.96,17.168 98.096,18.048 99.68,19.808 C101.264,21.568 102.056,23.936 102.056,26.912 C102.056,29.888 101.256,32.256 99.656,34.016 C98.056,35.776 95.928,36.656 93.272,36.656 Z M125.832,44 C129.448,44 132.592,43.28 135.264,41.84 C137.936,40.4 139.984,38.392 141.408,35.816 C142.832,33.24 143.544,30.288 143.544,26.96 C143.544,23.632 142.832,20.688 141.408,18.128 C139.984,15.568 137.944,13.584 135.288,12.176 C132.632,10.768 129.48,10.064 125.832,10.064 L125.832,10.064 L113.016,10.064 L113.016,44 L125.832,44 Z M125.112,36.656 L121.224,36.656 L121.224,17.264 L125.112,17.264 C128.312,17.264 130.8,18.112 132.576,19.808 C134.352,21.504 135.24,23.888 135.24,26.96 C135.24,30.032 134.352,32.416 132.576,34.112 C130.8,35.808 128.312,36.656 125.112,36.656 L125.112,36.656 Z M161.704,44.288 C166.024,44.288 169.6,43.144 172.432,40.856 C175.264,38.568 177.096,35.504 177.928,31.664 L177.928,31.664 L169.24,31.664 C168.6,33.2 167.616,34.416 166.288,35.312 C164.96,36.208 163.384,36.656 161.56,36.656 C159.16,36.656 157.224,35.784 155.752,34.04 C154.28,32.296 153.544,29.952 153.544,27.008 C153.544,24.064 154.28,21.712 155.752,19.952 C157.224,18.192 159.16,17.312 161.56,17.312 C163.384,17.312 164.96,17.76 166.288,18.656 C167.616,19.552 168.6,20.784 169.24,22.352 L169.24,22.352 L177.928,22.352 C177.096,18.48 175.264,15.408 172.432,13.136 C169.6,10.864 166.024,9.728 161.704,9.728 C158.408,9.728 155.512,10.456 153.016,11.912 C150.52,13.368 148.592,15.408 147.232,18.032 C145.872,20.656 145.192,23.648 145.192,27.008 C145.192,30.368 145.872,33.36 147.232,35.984 C148.592,38.608 150.52,40.648 153.016,42.104 C155.512,43.56 158.408,44.288 161.704,44.288 Z M186.728,44 L188.84,37.808 L201.56,37.808 L203.672,44 L212.408,44 L199.976,10.304 L190.52,10.304 L178.088,44 L186.728,44 Z M199.448,31.568 L190.952,31.568 L195.224,19.088 L199.448,31.568 Z M226.104,44.336 C228.632,44.336 230.784,43.888 232.56,42.992 C234.336,42.096 235.68,40.896 236.592,39.392 C237.504,37.888 237.96,36.24 237.96,34.448 C237.96,32.24 237.464,30.448 236.472,29.072 C235.48,27.696 234.296,26.648 232.92,25.928 C231.544,25.208 229.768,24.48 227.592,23.744 C226.088,23.2 224.936,22.752 224.136,22.4 C223.336,22.048 222.672,21.592 222.144,21.032 C221.616,20.472 221.352,19.792 221.352,18.992 C221.352,18 221.648,17.248 222.24,16.736 C222.832,16.224 223.608,15.968 224.568,15.968 C225.688,15.968 226.576,16.296 227.232,16.952 C227.888,17.608 228.296,18.496 228.456,19.616 L228.456,19.616 L237.336,19.616 C237.048,16.48 235.792,14.016 233.568,12.224 C231.344,10.432 228.344,9.536 224.568,9.536 C222.232,9.536 220.16,9.928 218.352,10.712 C216.544,11.496 215.128,12.624 214.104,14.096 C213.08,15.568 212.568,17.312 212.568,19.328 C212.568,21.504 213.056,23.272 214.032,24.632 C215.008,25.992 216.176,27.016 217.536,27.704 C218.896,28.392 220.648,29.104 222.792,29.84 C224.264,30.352 225.416,30.792 226.248,31.16 C227.08,31.528 227.776,32 228.336,32.576 C228.896,33.152 229.176,33.872 229.176,34.736 C229.176,35.696 228.872,36.464 228.264,37.04 C227.656,37.616 226.824,37.904 225.768,37.904 C224.552,37.904 223.552,37.536 222.768,36.8 C221.984,36.064 221.528,35.056 221.4,33.776 L221.4,33.776 L212.664,33.776 C212.888,37.104 214.232,39.696 216.696,41.552 C219.16,43.408 222.296,44.336 226.104,44.336 Z M255.688,44 L255.688,16.592 L264.904,16.592 L264.904,10.064 L238.312,10.064 L238.312,16.592 L247.432,16.592 L247.432,44 L255.688,44 Z M287.48,44 L287.48,37.424 L274.568,37.424 L274.568,29.888 L286.04,29.888 L286.04,23.696 L274.568,23.696 L274.568,16.592 L287.48,16.592 L287.48,10.064 L266.36,10.064 L266.36,44 L287.48,44 Z M298.344,44 L298.344,31.184 L300.216,31.184 L307.56,44 L316.632,44 L308.568,30.656 C311.16,30.016 313.136,28.832 314.496,27.104 C315.856,25.376 316.536,23.28 316.536,20.816 C316.536,18.736 316.072,16.888 315.144,15.272 C314.216,13.656 312.824,12.384 310.968,11.456 C309.112,10.528 306.84,10.064 304.152,10.064 L304.152,10.064 L290.136,10.064 L290.136,44 L298.344,44 Z M303.432,25.568 L298.344,25.568 L298.344,16.976 L303.432,16.976 C305.032,16.976 306.224,17.36 307.008,18.128 C307.792,18.896 308.184,19.952 308.184,21.296 C308.184,22.704 307.8,23.768 307.032,24.488 C306.264,25.208 305.064,25.568 303.432,25.568 L303.432,25.568 Z" id="PODCASTER" fill="#E2E2E2" fill-rule="nonzero"></path>
            </g>
        </g>
    </g>
</svg>