<?xml version="1.0" encoding="UTF-8"?>
<svg width="308px" height="43px" viewBox="0 0 308 43" version="1.1" xmlns="http://www.w3.org/2000/svg" xmlns:xlink="http://www.w3.org/1999/xlink">
    <title>sticker-mule</title>
    <g id="Page-1" stroke="none" stroke-width="1" fill="none" fill-rule="evenodd">
        <g id="sticker-mule" fill="#fff">
            <path d="M61.5,39.66 C57.18,39.66 53.22,39.18 49.74,35.7 L54.24,31.2 C56.52,33.48 59.46,33.78 61.62,33.78 C64.02,33.78 66.48,33 66.48,30.9 C66.48,29.52 65.76,28.56 63.54,28.38 L59.22,27.96 C54.24,27.48 51.18,25.32 51.18,20.22 C51.18,14.52 56.22,11.4 61.86,11.4 C66.18,11.4 69.78,12.12 72.42,14.64 L68.16,18.96 C66.54,17.52 64.14,17.1 61.74,17.1 C58.98,17.1 57.84,18.36 57.84,19.74 C57.84,20.76 58.26,21.9 60.72,22.14 L65.04,22.56 C70.5,23.1 73.26,25.98 73.26,30.66 C73.26,36.78 68.04,39.66 61.5,39.66 L61.5,39.66 Z M85.26,39.36 C79.62,39.36 77.28,35.4 77.28,31.44 L77.28,17.76 L74.34,17.76 L74.34,12.54 L77.28,12.54 L77.28,4.38 L84.18,4.38 L84.18,12.54 L89.04,12.54 L89.04,17.76 L84.18,17.76 L84.18,31.02 C84.18,32.58 84.9,33.54 86.58,33.54 L89.1,33.54 L89.1,39.36 L85.26,39.36 L85.26,39.36 Z M92.1,7.02 L92.1,1.38 L99.18,1.38 L99.18,7.02 L92.1,7.02 Z M92.22,39.36 L92.22,11.76 L99.12,11.76 L99.12,39.36 L92.22,39.36 Z M114.66,39.66 C109.14,39.66 102.3,36.72 102.3,25.5 C102.3,14.34 109.14,11.4 114.66,11.4 C118.5,11.4 121.32,12.54 123.78,15.12 L119.1,19.8 C117.66,18.24 116.46,17.64 114.66,17.64 C113.04,17.64 111.72,18.24 110.76,19.44 C109.68,20.76 109.2,22.62 109.2,25.56 C109.2,28.5 109.68,30.36 110.76,31.74 C111.78,32.94 113.04,33.54 114.66,33.54 C116.46,33.54 117.66,32.88 119.1,31.38 L123.78,36 C121.32,38.46 118.5,39.66 114.66,39.66 Z M142.8,39.36 L136.02,27.84 L133.08,31.14 L133.08,39.36 L126.18,39.36 L126.18,1.62 L133.08,1.62 L133.08,23.04 L142.26,11.76 L150.6,11.76 L140.76,22.92 L151.38,39.42 L142.8,39.42 L142.8,39.36 Z" id="Shape" fill-rule="nonzero"></path>
            <path d="M157.08,27.66 C157.08,31.2 159.24,33.78 163.14,33.78 C166.14,33.78 167.64,32.94 169.38,31.2 L173.58,35.28 C170.76,38.1 168.06,39.6 163.08,39.6 C156.54,39.6 150.3,36.66 150.3,25.44 C150.3,16.44 155.16,11.34 162.36,11.34 C170.04,11.34 174.42,16.98 174.42,24.54 L174.42,27.6 L157.08,27.6 L157.08,27.66 Z M166.98,19.98 C166.26,18.36 164.7,17.1 162.36,17.1 C160.02,17.1 158.46,18.3 157.74,19.98 C157.32,21 157.14,21.72 157.08,22.92 L167.58,22.92 C167.52,21.72 167.4,21 166.98,19.98 Z M192.66,19.26 C191.58,18.18 190.68,17.64 189,17.64 C186.9,17.64 184.56,19.26 184.56,22.74 L184.56,39.36 L177.66,39.36 L177.66,11.76 L184.38,11.76 L184.38,14.4 C185.7,12.78 188.34,11.46 191.34,11.46 C194.04,11.46 195.96,12.12 197.88,14.04 L192.66,19.26 Z" id="Shape" fill-rule="nonzero"></path>
            <path d="M28.5,42.42 C28.08,42.6 27.54,42.54 27,42.6 C26.52,42.6 25.86,42.6 25.56,42.36 C25.38,42.24 25.38,41.94 25.38,41.76 C25.38,41.58 25.44,41.28 25.44,41.1 C25.5,40.86 25.56,40.5 25.44,40.32 C25.32,40.14 24.9,40.2 24.66,40.08 C24.42,39.96 24.36,39.6 24.3,39.24 C24.3,39.12 24.18,39 24.18,38.94 C24.12,38.4 24.3,37.62 24.42,37.08 C24.54,36.48 24.72,35.94 24.84,35.34 C25.02,34.5 25.02,33.54 24.96,32.64 C24.96,32.16 24.84,31.8 24.96,31.44 C25.02,31.08 25.2,30.78 25.26,30.42 L25.26,30.06 C25.26,29.94 25.32,29.88 25.32,29.76 C25.32,29.52 25.26,29.22 25.26,28.92 C25.2,28.14 25.26,27 25.32,26.34 C25.32,26.1 25.44,25.86 25.26,25.74 C24.42,25.74 23.7,25.86 22.92,25.98 C20.88,26.22 18.24,26.28 16.26,25.86 C16.08,25.8 15.9,25.8 15.72,25.8 C14.28,25.5 13.02,24.84 12,24.06 C11.82,23.94 11.64,23.82 11.46,23.64 C11.28,23.52 11.1,23.34 10.92,23.22 C10.14,22.86 9.06,23.28 8.7,23.82 C8.58,24 8.46,24.3 8.34,24.54 C8.22,24.78 8.1,25.02 8.04,25.26 C7.5,26.46 6.9,27.66 6.36,28.86 C6.06,29.58 5.7,30.36 5.46,31.14 C4.98,32.82 5.4,35.04 5.82,36.66 C5.88,36.78 5.94,36.96 6,37.14 C6.12,37.5 6.36,38.04 6.66,38.28 C6.84,38.4 7.08,38.52 7.26,38.64 C7.5,38.82 7.62,39.18 7.8,39.54 C7.86,39.66 7.98,39.84 8.04,40.02 C8.22,40.38 8.34,40.68 7.92,40.92 C7.62,41.1 7.14,41.1 6.72,41.16 C6.54,41.22 6.6,41.46 6.48,41.58 C6.42,41.64 6.12,41.76 6,41.82 C5.46,42 4.5,42 4.08,41.82 C3.84,41.76 3.6,41.58 3.54,41.4 C3.42,41.04 3.72,40.62 3.48,40.38 C3.36,40.26 3.12,40.26 2.94,40.2 C2.64,40.08 2.4,39.78 2.22,39.48 C1.92,38.64 2.1,37.38 2.04,36.36 C2.04,36.06 1.98,35.76 1.98,35.4 C1.98,34.8 1.8,34.2 1.74,33.6 C1.68,33.3 1.62,33.06 1.56,32.82 C1.44,32.4 1.38,31.92 1.26,31.5 C1.14,31.02 1.14,30.54 1.26,30.18 C1.32,30.06 1.44,29.94 1.5,29.82 C1.62,29.58 1.62,29.34 1.62,29.1 C1.56,28.98 1.26,29.1 1.2,28.98 C1.02,27.66 0.84,26.4 0.72,25.02 C0.66,24.54 0.66,24.12 0.66,23.64 C0.6,22.74 0.66,21.78 0.54,20.88 L0.36,19.62 C0.18,18.42 -0.12,16.92 0.12,15.66 C0.3,14.88 0.54,14.22 1.02,13.62 C1.32,13.2 1.68,12.84 2.04,12.42 C2.4,12.06 2.82,11.7 3.24,11.4 C3.54,11.22 3.84,10.98 4.14,10.8 C4.8,10.5 5.7,10.2 6.66,10.14 C7.62,10.08 8.7,10.08 9.6,10.26 C10.5,10.44 11.4,10.56 12.3,10.74 C13.14,10.92 13.98,11.16 14.82,11.34 C14.94,11.34 15,11.46 15.12,11.46 C15.36,11.52 15.66,11.52 15.96,11.64 C16.74,11.82 17.7,11.94 18.66,11.94 C19.68,11.94 20.58,11.94 21.42,11.7 C21.54,11.64 21.66,11.58 21.78,11.58 C21.9,11.52 22.08,11.52 22.2,11.52 C22.26,11.52 22.38,11.4 22.44,11.34 C22.92,11.1 23.34,10.86 23.76,10.56 C24.12,10.32 24.36,10.14 24.84,9.96 C25.02,9.9 25.26,9.78 25.44,9.72 C25.86,9.6 26.34,9.48 26.64,9.24 C27.18,8.94 27.54,8.46 27.96,8.04 C28.38,7.68 28.86,7.26 29.34,6.9 C30.3,6.12 31.26,5.46 32.16,4.74 C32.64,4.38 33.12,4.02 33.66,3.72 C34.68,3.12 35.76,2.46 37.26,2.34 C37.86,2.28 38.46,2.28 39.06,2.34 C39.24,2.34 39.42,2.46 39.6,2.4 C39.78,2.34 39.9,2.1 39.96,1.92 C40.2,1.5 40.32,1.26 40.56,0.78 C40.68,0.48 40.62,0.18 40.92,0.18 C41.22,0.18 41.16,0.96 41.16,1.26 C41.16,1.62 41.1,2.1 41.16,2.34 C41.22,2.52 41.46,2.76 41.7,2.76 C41.88,2.76 42,2.64 42.12,2.52 C42.3,2.4 42.42,2.4 42.54,2.28 C42.78,2.1 43.08,1.8 43.32,1.56 C43.5,1.38 43.86,0.84 44.16,0.9 C44.76,0.96 44.16,1.86 44.04,2.1 C43.74,2.76 43.44,3.3 43.08,3.9 C42.96,4.14 42.6,4.5 42.6,4.8 C42.6,4.98 42.78,5.1 42.84,5.34 C42.9,5.46 42.9,5.52 42.96,5.64 C43.14,6.12 43.32,6.78 43.5,7.32 C43.62,7.8 43.74,8.28 43.92,8.7 C44.1,9.12 44.34,9.54 44.52,10.02 C44.58,10.14 44.58,10.26 44.64,10.38 C45,11.34 45.36,12.42 45.84,13.38 C46.02,13.74 46.26,14.22 46.26,14.76 C46.26,15.36 45.96,15.66 45.66,16.14 C45.54,16.38 45.3,16.74 45.06,16.8 C44.88,16.86 44.7,16.8 44.52,16.8 C44.28,16.86 44.1,16.98 43.92,16.98 C43.38,17.04 42.84,16.62 42.72,16.2 C42.66,16.08 42.72,15.9 42.66,15.72 C42.54,15.06 42.18,14.76 41.76,14.28 C41.46,13.98 41.22,13.8 40.86,13.62 C40.32,13.32 39.78,13.2 39.18,12.9 C39,12.78 38.7,12.66 38.52,12.72 C38.22,12.78 37.92,13.26 37.68,13.56 C36.24,15.48 34.92,17.46 33.54,19.32 C32.58,20.58 31.62,21.84 30.84,23.22 C30.66,23.58 30.54,24 30.36,24.42 C30.24,24.84 30.12,25.26 30,25.74 C29.46,27.3 29.28,29.22 28.8,30.84 C28.74,31.02 28.74,31.2 28.68,31.38 C28.44,32.22 28.2,33.18 27.96,34.08 C27.78,34.74 27.72,35.64 27.66,36.48 C27.66,37.32 27.6,38.46 27.9,38.94 C28.08,39.24 28.62,39.3 28.8,39.6 C28.92,39.78 29.04,40.2 29.22,40.44 C29.34,40.62 29.64,40.98 29.58,41.28 C29.58,41.46 29.4,41.64 29.22,41.7 C29.04,41.76 28.8,41.76 28.62,41.82 C28.62,42.06 28.68,42.3 28.5,42.42 L28.5,42.42 Z" id="Path"></path>
            <path d="M228.84,11.4 C225.42,11.4 222.9,12.48 220.56,14.88 C218.82,12.48 216.3,11.4 213.24,11.4 C210.72,11.4 208.14,12.42 206.34,14.28 L206.34,11.76 L199.62,11.76 L199.62,39.36 L206.52,39.36 L206.52,22.68 C206.52,18.9 208.98,17.64 211.14,17.64 C213.3,17.64 215.7,18.9 215.7,22.68 L215.7,39.36 L222.6,39.36 L222.6,22.5 C222.6,18.9 225.12,17.64 227.22,17.64 C229.38,17.64 231.78,18.9 231.78,22.68 L231.78,39.36 L238.68,39.36 L238.68,21.72 C238.68,18.72 237.9,16.08 235.68,13.86 C234.06,12.3 231.6,11.4 228.84,11.4 L228.84,11.4 Z M258.78,28.44 C258.78,32.22 256.32,33.48 254.16,33.48 C252,33.48 249.6,32.22 249.6,28.44 L249.6,11.7 L242.7,11.7 L242.7,29.4 C242.7,32.4 243.3,35.04 245.52,37.26 C247.08,38.82 249.3,39.72 252.06,39.72 C254.58,39.72 257.16,38.76 258.96,36.84 L258.96,39.36 L265.68,39.36 L265.68,11.76 L258.78,11.76 L258.78,28.44 L258.78,28.44 Z M276.96,31.02 L276.96,1.62 L270.06,1.62 L270.06,31.44 C270.06,35.34 272.46,39.36 278.1,39.36 L282,39.36 L282,33.54 L279.36,33.54 C277.62,33.54 276.96,32.7 276.96,31.02 Z M307.32,24.6 C307.32,17.04 303,11.4 295.26,11.4 C288.12,11.4 283.2,16.5 283.2,25.5 C283.2,36.66 289.44,39.66 295.98,39.66 C300.96,39.66 303.66,38.1 306.48,35.34 L302.28,31.26 C300.54,33 299.04,33.84 296.04,33.84 C292.14,33.84 289.98,31.26 289.98,27.72 L307.26,27.72 L307.26,24.6 L307.32,24.6 Z M290.04,22.98 C290.1,21.78 290.28,21 290.7,20.04 C291.42,18.42 292.98,17.16 295.32,17.16 C297.66,17.16 299.16,18.36 299.94,20.04 C300.36,21.06 300.54,21.78 300.6,22.98 L290.04,22.98 L290.04,22.98 Z" id="Shape" fill-rule="nonzero"></path>
        </g>
    </g>
</svg>