<svg width="673" height="103" viewBox="0 0 673 103" xmlns="http://www.w3.org/2000/svg"><g fill="none" fill-rule="evenodd"><path d="M.3 52.2V41.6c0-4.6 2.1-8.1 6-10.3C20 23.4 33.7 15.7 47.4 7.9c3.2-1.8 6.4-3.7 9.7-5.5 4.2-2.3 8.3-2.3 12.5.1 10.8 6.2 21.5 12.4 32.3 18.6 5.9 3.4 11.8 6.8 17.7 10.3 3.8 2.3 5.8 5.8 5.8 10.3v21.1c0 5-2.5 8.5-6.8 10.9-8.9 4.9-17.8 9.9-26.7 14.9-7.5 4.2-15.1 8.5-22.6 12.6-4.1 2.3-8.2 1.9-12.3-.3-9.9-5.4-19.8-10.8-29.6-16.2-7-3.8-14-7.6-20.9-11.5-4-2.3-6-5.8-6-10.4-.2-3.6-.2-7.1-.2-10.6zm19.9-10.5c1.5-.8 2.9-1.6 4.3-2.4 6.7-3.8 13.4-7.6 20.2-11.4 6-3.4 12-6.8 17.9-10.2.6-.4 1.1-.4 1.7 0 3.7 2.1 7.3 4.2 11 6.4 7.5 4.4 15.1 8.7 22.6 13.1 4.5 2.6 9.1 5.2 13.6 7.9.6.4 1.3.6 2 .6 1.7-.1 3.3-1.3 3.6-2.9.4-1.8-.3-3.4-1.9-4.3-4.4-2.6-8.9-5.1-13.3-7.7l-20.7-12c-5.3-3.1-10.6-6.1-15.8-9.2-1.3-.7-2.6-.8-3.9 0-1 .6-2 1.1-3 1.7C50.3 15.8 42.2 20.4 34 25L10.6 38.2c-1.4.8-2.2 2-2.1 3.6.1 1.5.9 2.6 2.2 3.3l6.3 3.6c6.3 3.6 12.6 7.1 18.9 10.7l18 10.2 7.5 4.2c1.7 1 3.8.5 4.9-1 1.4-2 .9-4.4-1.3-5.7-6.4-3.6-12.8-7.3-19.2-10.9-7.1-4-14.1-8-21.2-12-1.4-.8-2.9-1.6-4.4-2.5zm43.2 52.8c.7.1 1.4-.2 2-.5 4.4-2.5 8.8-4.9 13.2-7.4 4.8-2.7 9.7-5.4 14.5-8.1 4.8-2.7 9.5-5.3 14.3-8 2.6-1.4 5.2-2.9 7.8-4.3 1.9-1.1 2.6-3.4 1.5-5.2-1.1-1.9-3.3-2.6-5.2-1.5-7 3.9-14.1 7.8-21.1 11.8-8.8 4.9-17.7 9.9-26.5 14.8-.4.2-.7.2-1.1 0-4.7-2.6-9.4-5.1-14-7.7C37.2 72 25.6 65.7 14 59.4c-.9-.5-1.9-.6-2.9-.3-1.6.4-2.5 1.5-2.8 3.1-.3 1.7.5 3.1 2 4L35.5 80c8.6 4.7 17.1 9.4 25.7 14.1.7.2 1.4.4 2.2.4z" fill="#fff" fill-rule="nonzero"/><path d="M166.4 58.5c-4.5-1.1-8.8-3-12.7-5.5-6.6-4.5-10.6-11.9-10.7-19.9-.5-6.6 1.7-13.1 6.1-18 5.1-5.3 12.1-8.4 19.5-8.7 12.2 0 19 4.7 25.1 8.8l2.8 1.9-8.7 15-3-2c-5.4-3.6-8.9-6-16.1-6-1.1 0-5.3.9-7.4 3.3-.7.8-1.6 2.1-1.4 5 .1 4.5 3.1 7.1 10.8 9.1 1 .2 1.7.5 2.4.8 8 2.9 14.2 6.8 18.5 11.7 4.2 4.7 6.5 10.9 6.6 17.2-.1 6.4-2.5 12.6-6.7 17.5-4.7 5.8-11.8 9.1-19.3 9.1-5 .1-9.9-.7-14.7-2.1-7.7-2.6-14.6-7.2-20-13.4l12.2-12.1c5.6 6.6 13.9 10.3 22.5 10 6.9 0 9.2-6.7 9.2-8.9 0-4.8-5.1-9.2-13.9-12.3l-.4-.1-.7-.4zM270.1 7.6v17.6h-23.2V96h-16.7V25.3h-23.3V7.6z" fill="#fff"/><path d="M327.8 79.6h-34.7L285.3 96h-18.8l42.7-88.3h4.9L353.7 96h-18.5l-7.4-16.4zM320 62l-8.7-19.7-9.5 19.7H320z" fill="#fff" fill-rule="nonzero"/><path d="M415.8 29.1c-16.2-11.1-40.7-.8-40.7 22.9 0 24.8 25.9 34.8 41.7 22.2l10.8 13c-7.7 6.8-17.5 10.5-27.7 10.6-23.9 0-43.4-20.5-43.4-45.7 0-25.2 19.5-45.8 43.4-45.8 9.8.1 19.2 3.5 26.8 9.7l-10.9 13.1zM462.8 55.5l-6.5 6.9v33.4h-16.7V7.6h16.7v28.5l24.5-28.5h22.6l-29.3 34.5 30 53.7h-20z" fill="#fff"/><path d="M542 80.9c5.8-.1 10.4-4.8 10.3-10.6.1-5.8-4.5-10.6-10.3-10.7h-27.4v-52h22.8c13.5 0 24.5 11.6 24.5 25.8 0 5.2-1.5 10.2-4.3 14.5 6.3 5.2 10 13 9.9 21.2 0 14.9-11.4 26.7-25.3 26.7h-6v-15l5.8.1zm-5.3-38.4c5.5-.2 9.8-4.7 9.7-10.2.1-5.4-4.2-9.9-9.6-10h-7.3v20.2h7.2z" fill="#fff" fill-rule="nonzero"/><path fill="#fff" d="M582.1 95.8V7.6h16.7v88.2zM672.8 7.6v17.6h-23.2V96h-16.7V25.3h-23.3V7.6z"/><path fill="#fff" d="M530.1 95.9h-15.5v-15h15.5z"/></g></svg>