<?xml version="1.0" encoding="UTF-8"?>
<svg width="112px" height="88px" viewBox="0 0 112 88" version="1.1" xmlns="http://www.w3.org/2000/svg" xmlns:xlink="http://www.w3.org/1999/xlink">
    <title>lips</title>
    <g id="Page-1" stroke="none" stroke-width="1" fill="none" fill-rule="evenodd" opacity="0.4">
        <g id="lips" fill="#2C343C">
            <path d="M72,8 L40,8 L16,18 L0,18 L0,26 L16,26 L40,12 L72,12 L96,26 L112,26 L112,18 L96,18 L72,8 Z M72,0 L40,0 L16,2 L0,2 L0,10 L16,10 L40,4 L72,4 L96,10 L112,10 L112,2 L96,2 L72,0 Z M72,84 L40,84 L16,78 L0,78 L0,86 L16,86 L40,88 L72,88 L96,86 L112,86 L112,78 L96,78 L72,84 Z M72,76 L40,76 L16,62 L0,62 L0,70 L16,70 L40,80 L72,80 L96,70 L112,70 L112,62 L96,62 L72,76 Z M72,64 L40,64 L16,54 L0,54 L0,58 L16,58 L40,72 L72,72 L96,58 L112,58 L112,54 L96,54 L72,64 Z M72,48 L40,48 L16,46 L0,46 L0,50 L16,50 L40,56 L72,56 L96,50 L112,50 L112,46 L96,46 L72,48 Z M72,32 L40,32 L16,38 L0,38 L0,42 L16,42 L40,40 L72,40 L96,42 L112,42 L112,38 L96,38 L72,32 Z M72,16 L40,16 L16,30 L0,30 L0,34 L16,34 L40,24 L72,24 L96,34 L112,34 L112,30 L96,30 L72,16 Z" id="Shape"></path>
        </g>
    </g>
</svg>